<svg width="24" height="24" viewBox="0 0 24 24" fill="none" xmlns="http://www.w3.org/2000/svg">
<mask id="mask0_3112_1521" style="mask-type:alpha" maskUnits="userSpaceOnUse" x="0" y="0" width="24" height="24">
<rect width="24" height="24" fill="#D9D9D9"/>
</mask>
<g mask="url(#mask0_3112_1521)">
<path d="M6.98075 21C6.43592 21 5.96958 20.8196 5.58175 20.4587C5.19392 20.0977 5 19.6512 5 19.1192V5.76549C5 5.24749 5.17658 4.79299 5.52975 4.40199C5.88292 4.01099 6.3185 3.76157 6.8365 3.65374L15.6155 1.79999V16.4155L6.75575 18.3345C6.55442 18.3807 6.37817 18.4727 6.227 18.6105C6.07567 18.7483 6 18.9179 6 19.1192C6 19.3794 6.09742 19.5912 6.29225 19.7547C6.48708 19.9182 6.71658 20 6.98075 20H18V4.99999H19V21H6.98075ZM8.3845 16.9827L14.6155 15.623V3.03849L8.3845 4.35949V16.9827ZM7.3845 17.1905V4.56724L6.952 4.66149C6.67883 4.72049 6.45192 4.85099 6.27125 5.05299C6.09042 5.25482 6 5.49232 6 5.76549V17.6327C6.12183 17.5609 6.24458 17.4997 6.36825 17.449C6.49192 17.3983 6.62108 17.3582 6.75575 17.3287L7.3845 17.1905Z" fill="#1C1B1F"/>
</g>
</svg>
