<svg width="28" height="28" viewBox="0 0 28 28" fill="none" xmlns="http://www.w3.org/2000/svg">
<path d="M14 28C21.732 28 28 21.732 28 14C28 6.26801 21.732 0 14 0C6.26801 0 0 6.26801 0 14C0 21.732 6.26801 28 14 28Z" fill="white"/>
<path d="M22.4437 15.7505V21.6567H18.9874V16.1442C18.9874 14.7442 18.5062 13.8255 17.2374 13.8255C16.2749 13.8255 15.7062 14.4817 15.4874 15.0942C15.3999 15.313 15.3562 15.6192 15.3562 15.9255V21.7005H11.9C11.9 21.7005 11.9437 12.338 11.9 11.3755H15.3562V12.8192C15.3562 12.8192 15.3562 12.863 15.3124 12.863H15.3562V12.8192C15.7937 12.1192 16.625 11.113 18.4625 11.113C20.7375 11.0692 22.4437 12.5567 22.4437 15.7505ZM6.6062 21.6567H10.0187V11.3317H6.6062V21.6567ZM10.15 7.83173C10.15 8.79423 9.36245 9.58173 8.39995 9.58173C7.43745 9.58173 6.64995 8.79423 6.64995 7.83173C6.64995 6.86923 7.43745 6.08173 8.39995 6.08173C9.36245 6.03798 10.15 6.86923 10.15 7.83173Z" fill="#2E2E2E"/>
</svg>
