<svg width="74" height="21" viewBox="0 0 74 21" fill="none" xmlns="http://www.w3.org/2000/svg">
<path d="M10.4407 0.25C4.78514 0.3329 0.25 2.69978 0.25 5.60779C0.25 7.59069 2.35948 9.32251 5.49509 10.25" stroke="#1D4E6A" stroke-width="0.5" stroke-miterlimit="10" stroke-linecap="round"/>
<path d="M5.49508 10.25C3.42163 9.10043 2.06512 7.44459 2.2071 5.68182C2.4487 2.68268 6.0482 0.374892 10.4407 0.25" stroke="#1D4E6A" stroke-width="0.5" stroke-miterlimit="10" stroke-linecap="round"/>
<path d="M5.49509 10.25C4.48379 8.87857 3.90524 7.29849 4.16421 5.75563C4.68321 2.6645 7.31105 0.416667 10.4407 0.25" stroke="#1D4E6A" stroke-width="0.5" stroke-miterlimit="10" stroke-linecap="round"/>
<path d="M5.49509 10.25C5.66696 4.85325 7.7919 0.546104 10.4407 0.25" stroke="#1D4E6A" stroke-width="0.5" stroke-miterlimit="10" stroke-linecap="round"/>
<path d="M0.549454 20.25C6.20503 20.1671 10.7402 17.8002 10.7402 14.8922C10.7402 12.9093 8.6307 11.1775 5.49509 10.25" stroke="#1D4E6A" stroke-width="0.5" stroke-miterlimit="10" stroke-linecap="round"/>
<path d="M5.49509 10.25C7.56854 11.3996 8.92506 13.0554 8.78307 14.8182C8.54148 17.8173 4.94197 20.1251 0.549454 20.25" stroke="#1D4E6A" stroke-width="0.5" stroke-miterlimit="10" stroke-linecap="round"/>
<path d="M5.49509 10.25C6.50639 11.6214 7.08494 13.2015 6.82597 14.7444C6.30718 17.8355 3.67913 20.0833 0.549454 20.25" stroke="#1D4E6A" stroke-width="0.5" stroke-miterlimit="10" stroke-linecap="round"/>
<path d="M5.49509 10.25C5.32322 15.6468 3.19827 19.9539 0.549454 20.25" stroke="#1D4E6A" stroke-width="0.5" stroke-miterlimit="10" stroke-linecap="round"/>
<path d="M62.6944 17.914C62.6144 18.042 62.4704 18.106 62.2624 18.106C62.0544 18.106 61.9184 18.042 61.8544 17.914C61.7104 17.69 61.5104 17.298 61.2544 16.738C60.9984 16.178 60.7024 15.514 60.3664 14.746C60.0464 13.962 59.7024 13.13 59.3344 12.25C58.9824 11.37 58.6384 10.498 58.3024 9.63397C57.9664 8.76997 57.6544 7.96198 57.3664 7.20998C57.0784 6.44198 56.8464 5.80197 56.6704 5.28997H56.5744C56.3984 7.83397 56.2544 9.92997 56.1424 11.578C56.0464 13.21 55.9904 14.45 55.9744 15.298C55.9584 16.13 56.0064 16.698 56.1184 17.002C56.2304 17.306 56.3824 17.458 56.5744 17.458H57.6304C57.7424 17.458 57.8224 17.498 57.8704 17.578C57.9184 17.658 57.9424 17.746 57.9424 17.842C57.9424 17.938 57.9184 18.034 57.8704 18.13C57.8224 18.21 57.7424 18.25 57.6304 18.25C57.0384 18.25 56.5664 18.25 56.2144 18.25C55.8784 18.234 55.5104 18.226 55.1104 18.226C54.4864 18.226 53.8864 18.234 53.3104 18.25C52.7504 18.282 52.3424 18.298 52.0864 18.298C52.0224 18.298 51.9664 18.258 51.9184 18.178C51.8864 18.082 51.8704 17.986 51.8704 17.89C51.8704 17.794 51.8864 17.706 51.9184 17.626C51.9664 17.53 52.0224 17.482 52.0864 17.482H52.8784C53.2624 17.482 53.5424 17.45 53.7184 17.386C53.9104 17.322 54.0384 17.138 54.1024 16.834C54.1504 16.514 54.2144 16.042 54.2944 15.418C54.3744 14.778 54.4624 14.05 54.5584 13.234C54.6544 12.402 54.7504 11.554 54.8464 10.69C54.9424 9.82597 55.0304 9.00198 55.1104 8.21798C55.1904 7.43398 55.2544 6.76198 55.3024 6.20197C55.3504 5.64198 55.3744 5.26597 55.3744 5.07397C55.3904 4.22597 55.3424 3.64997 55.2304 3.34597C55.1344 3.02597 54.9744 2.86597 54.7504 2.86597H53.5504C53.4864 2.86597 53.4384 2.83397 53.4064 2.76997C53.3744 2.68997 53.3584 2.60997 53.3584 2.52997C53.3584 2.43397 53.3744 2.33797 53.4064 2.24197C53.4384 2.14597 53.4864 2.09797 53.5504 2.09797C53.9024 2.09797 54.3344 2.10597 54.8464 2.12197C55.3584 2.12197 55.8944 2.12997 56.4544 2.14598C57.0304 2.14598 57.5744 2.14598 58.0864 2.14598C58.1664 2.41797 58.3264 2.89797 58.5664 3.58598C58.8064 4.27398 59.0944 5.09797 59.4304 6.05797C59.7824 7.00197 60.1584 8.01797 60.5584 9.10597C60.9584 10.178 61.3504 11.242 61.7344 12.298C62.1184 13.354 62.4624 14.33 62.7664 15.226H62.8624C63.5344 13.53 64.2064 11.866 64.8784 10.234C65.5504 8.60197 66.1584 7.08997 66.7024 5.69798C67.2624 4.30597 67.6864 3.12197 67.9744 2.14598C68.7264 2.14598 69.4784 2.13797 70.2304 2.12197C70.9824 2.08997 71.5744 2.07397 72.0064 2.07397C72.0704 2.07397 72.1184 2.12997 72.1504 2.24197C72.1984 2.35397 72.2224 2.45797 72.2224 2.55397C72.2224 2.76197 72.1504 2.86597 72.0064 2.86597H71.0944C70.7904 2.86597 70.5824 2.96197 70.4704 3.15397C70.3744 3.34597 70.3344 3.64197 70.3504 4.04198C70.3504 4.16997 70.3744 4.56197 70.4224 5.21797C70.4864 5.85797 70.5664 6.64998 70.6624 7.59398C70.7584 8.52198 70.8544 9.51398 70.9504 10.57C71.0624 11.61 71.1664 12.618 71.2624 13.594C71.3744 14.554 71.4704 15.378 71.5504 16.066C71.5824 16.402 71.6384 16.722 71.7184 17.026C71.8144 17.314 71.9424 17.458 72.1024 17.458H73.6144C73.6944 17.458 73.7584 17.498 73.8064 17.578C73.8544 17.658 73.8784 17.746 73.8784 17.842C73.8784 17.954 73.8544 18.05 73.8064 18.13C73.7584 18.21 73.6944 18.25 73.6144 18.25C73.3584 18.25 73.0224 18.25 72.6064 18.25C72.1904 18.234 71.7824 18.226 71.3824 18.226C70.9824 18.226 70.6784 18.226 70.4704 18.226C70.1984 18.226 69.8464 18.234 69.4144 18.25C68.9824 18.25 68.5664 18.258 68.1664 18.274C67.7664 18.29 67.4864 18.298 67.3264 18.298C67.2624 18.298 67.2144 18.25 67.1824 18.154C67.1504 18.058 67.1344 17.962 67.1344 17.866C67.1344 17.77 67.1504 17.682 67.1824 17.602C67.2144 17.522 67.2624 17.482 67.3264 17.482H68.2384C68.8304 17.482 69.1024 17.226 69.0544 16.714C69.0384 16.458 69.0064 16.05 68.9584 15.49C68.9264 14.93 68.8784 14.282 68.8144 13.546C68.7504 12.794 68.6864 12.01 68.6224 11.194C68.5584 10.378 68.5024 9.59397 68.4544 8.84197C68.4064 8.07397 68.3584 7.40198 68.3104 6.82598C68.2784 6.23398 68.2624 5.79397 68.2624 5.50597H68.1664C67.9264 6.01797 67.6144 6.71398 67.2304 7.59398C66.8624 8.45798 66.4544 9.40198 66.0064 10.426C65.5744 11.434 65.1424 12.434 64.7104 13.426C64.2784 14.418 63.8784 15.314 63.5104 16.114C63.1584 16.914 62.8864 17.514 62.6944 17.914Z" fill="#1D4E6A"/>
<path d="M43.6118 6.61001C43.6758 6.46601 43.8358 6.39401 44.0918 6.39401C44.3318 6.39401 44.4838 6.47401 44.5478 6.63401C44.6278 6.98601 44.7798 7.47401 45.0038 8.09801C45.2438 8.72201 45.5238 9.42601 45.8438 10.21C46.1638 10.978 46.4918 11.77 46.8278 12.586C47.1798 13.386 47.5158 14.154 47.8358 14.89C48.1718 15.61 48.4598 16.226 48.6998 16.738C48.8918 17.138 49.0678 17.394 49.2278 17.506C49.3878 17.602 49.6358 17.65 49.9718 17.65C50.0678 17.65 50.1158 17.746 50.1158 17.938C50.1158 18.018 50.1078 18.098 50.0918 18.178C50.0758 18.258 50.0438 18.298 49.9958 18.298C49.4998 18.298 49.0838 18.29 48.7478 18.274C48.4118 18.258 48.0598 18.25 47.6918 18.25C47.3878 18.25 47.0198 18.258 46.5878 18.274C46.1558 18.29 45.6598 18.298 45.0998 18.298C45.0358 18.298 44.9958 18.266 44.9798 18.202C44.9638 18.122 44.9558 18.05 44.9558 17.986C44.9558 17.778 45.0038 17.674 45.0998 17.674H46.2518C46.4278 17.674 46.5158 17.602 46.5158 17.458C46.5158 17.41 46.4518 17.21 46.3238 16.858C46.1958 16.506 46.0278 16.058 45.8198 15.514C45.6278 14.97 45.4118 14.386 45.1718 13.762H41.8358C41.4998 14.594 41.2198 15.314 40.9958 15.922C40.7718 16.53 40.6598 16.946 40.6598 17.17C40.6598 17.362 40.6918 17.49 40.7558 17.554C40.8198 17.618 40.8838 17.65 40.9478 17.65H41.9318C42.0598 17.65 42.1238 17.746 42.1238 17.938C42.1238 18.018 42.1078 18.098 42.0758 18.178C42.0598 18.258 42.0278 18.298 41.9798 18.298C41.5798 18.298 41.2598 18.29 41.0198 18.274C40.7958 18.274 40.5878 18.266 40.3958 18.25C40.2198 18.25 40.0118 18.25 39.7718 18.25C39.4838 18.25 39.1958 18.258 38.9078 18.274C38.6358 18.29 38.2918 18.298 37.8758 18.298C37.8118 18.298 37.7638 18.266 37.7318 18.202C37.7158 18.122 37.7078 18.05 37.7078 17.986C37.7078 17.778 37.7638 17.674 37.8758 17.674H38.6438C38.8198 17.674 38.9478 17.602 39.0278 17.458C39.1878 17.202 39.4118 16.754 39.6998 16.114C40.0038 15.458 40.3398 14.698 40.7078 13.834C41.0758 12.97 41.4438 12.082 41.8118 11.17C42.1958 10.258 42.5478 9.40201 42.8678 8.60201C43.1878 7.78601 43.4358 7.12201 43.6118 6.61001ZM44.8598 12.946C44.6358 12.29 44.4118 11.642 44.1878 11.002C43.9798 10.362 43.7878 9.79401 43.6118 9.29801H43.5398C43.3318 9.89001 43.1078 10.506 42.8678 11.146C42.6278 11.786 42.3958 12.386 42.1718 12.946H44.8598Z" fill="#1D4E6A"/>
<path d="M26.122 2.14602C28.122 2.14602 29.85 2.49002 31.306 3.17802C32.778 3.85002 33.906 4.79402 34.69 6.01002C35.49 7.21002 35.89 8.61002 35.89 10.21C35.89 11.458 35.65 12.578 35.17 13.57C34.706 14.562 34.05 15.41 33.202 16.114C32.354 16.802 31.362 17.33 30.226 17.698C29.106 18.066 27.89 18.25 26.578 18.25H23.77C22.746 18.25 21.906 18.258 21.25 18.274C20.594 18.29 20.074 18.298 19.69 18.298C19.626 18.298 19.578 18.258 19.546 18.178C19.514 18.098 19.498 18.01 19.498 17.914C19.498 17.802 19.514 17.706 19.546 17.626C19.578 17.53 19.626 17.482 19.69 17.482H20.722C21.138 17.482 21.402 17.402 21.514 17.242C21.642 17.082 21.706 16.794 21.706 16.378V4.95402C21.706 4.33002 21.674 3.87402 21.61 3.58602C21.562 3.29802 21.498 3.11402 21.418 3.03402C21.354 2.95402 21.282 2.91402 21.202 2.91402H19.69C19.546 2.91402 19.474 2.79402 19.474 2.55402C19.474 2.45802 19.49 2.36202 19.522 2.26602C19.57 2.15402 19.626 2.09802 19.69 2.09802C19.882 2.09802 20.162 2.10602 20.53 2.12202C20.898 2.12202 21.29 2.13002 21.706 2.14602C22.138 2.14602 22.522 2.14602 22.858 2.14602H26.122ZM26.65 17.266C27.962 17.25 29.106 16.978 30.082 16.45C31.058 15.922 31.81 15.178 32.338 14.218C32.882 13.258 33.154 12.122 33.154 10.81C33.154 9.37002 32.882 8.09802 32.338 6.99402C31.794 5.87402 30.93 4.97802 29.746 4.30602C28.578 3.61802 27.026 3.21802 25.09 3.10602C24.802 3.09002 24.578 3.16202 24.418 3.32202C24.258 3.46602 24.178 3.72202 24.178 4.09002V15.178C24.178 15.786 24.202 16.242 24.25 16.546C24.314 16.85 24.386 17.05 24.466 17.146C24.546 17.242 24.618 17.29 24.682 17.29L26.65 17.266Z" fill="#1D4E6A"/>
</svg>
